<svg height="511pt" viewBox="0 -26 511.9996 511" width="511pt" xmlns="http://www.w3.org/2000/svg">
  <g fill="#eda1ab">
    <path d="M73.2383 313.7422c0 18.1601-14.7227 32.8789-32.879 32.8789-18.16 0-32.8827-14.7188-32.8827-32.879 0-18.16 14.7226-32.8788 32.8828-32.8788 18.1562 0 32.8789 14.7187 32.8789 32.8789zm0 0M238.0234 408.9648c0 18.1602-14.7226 32.879-32.8828 32.879-18.1562 0-32.8789-14.7188-32.8789-32.879s14.7227-32.8789 32.879-32.8789c18.16 0 32.8827 14.7188 32.8827 32.879zm0 0M339.7383 408.9648c0 18.1602-14.7227 32.879-32.879 32.879-18.16 0-32.8827-14.7188-32.8827-32.879s14.7226-32.8789 32.8828-32.8789c18.1562 0 32.8789 14.7188 32.8789 32.879zm0 0"/>
  </g>
  <path d="M137.875 332.6836c0 18.1602-14.7188 32.8789-32.879 32.8789s-32.8788-14.7188-32.8788-32.879 14.7187-32.8788 32.8789-32.8788 32.8789 14.7187 32.8789 32.8789zm0 0" fill="#e26e7e"/>
  <path d="M504.5195 313.7422c0 18.1601-14.7187 32.8789-32.8789 32.8789s-32.8789-14.7188-32.8789-32.879c0-18.16 14.7188-32.8788 32.879-32.8788s32.8788 14.7187 32.8788 32.8789zm0 0" fill="#eda1ab"/>
  <path d="M439.8828 332.6836c0 18.1602-14.7187 32.8789-32.8789 32.8789s-32.8789-14.7188-32.8789-32.879 14.7188-32.8788 32.879-32.8788 32.8788 14.7187 32.8788 32.8789zm0 0" fill="#e26e7e"/>
  <path d="M487.9063 256.582c-13.2657-12.8242-34.4258-12.0234-47.6446.8516-8.8906 8.668-20.6015 13.4297-33.043 13.4297-9.7734 0-18.8671-2.9766-26.4218-8.0703-13.9336-9.4024-17.4844-28.3555-8.4258-42.5157 13.8008-21.582 21.7656-47.2578 21.6562-74.8046-.293-74.879-61.1015-136.3672-135.9726-137.457-77.1719-1.1212-140.086 61.0976-140.086 138.0155 0 27.3711 7.9727 52.879 21.7188 74.336 9.043 14.1172 5.414 33.0469-8.4844 42.4258-7.5508 5.0937-16.6445 8.0703-26.4219 8.0703-12.4414 0-24.1523-4.7617-33.0468-13.4297-13.2149-12.875-34.375-13.6758-47.6407-.8516-13.5664 13.1094-13.703 34.7344-.418 48.0196 21.6641 21.664 50.465 33.5937 81.1055 33.5937 32.0508 0 61.0743-13.2187 81.9063-34.4922-5.8125 29.9297-18.4922 61.7344-46.168 91.8946-12.5703 13.6992-11.6562 34.996 2.043 47.5664 6.4648 5.9336 14.621 8.8632 22.754 8.8632 9.1015 0 18.1757-3.6718 24.8163-10.9062 36.539-39.8203 53.6719-81.836 61.707-119.8945.9532-4.5118 7.3711-4.5118 8.3204 0 8.039 38.0586 25.1718 80.0742 61.7109 119.8945 6.6367 7.2344 15.7148 10.9062 24.8125 10.9062 8.1367 0 16.289-2.9296 22.7539-8.8632 13.6992-12.5704 14.6172-33.8672 2.0469-47.5664-27.6758-30.1602-40.3555-61.9649-46.1719-91.8946 20.836 21.2735 49.8555 34.4922 81.9102 34.4922 30.6367 0 59.4375-11.9297 81.1054-33.5937 13.2813-13.2852 13.1446-34.9102-.4219-48.0196zm0 0" fill="#b49cdc"/>
  <path d="M487.9063 256.582c-13.2657-12.8242-34.4258-12.0234-47.6446.8516-8.8906 8.668-20.6015 13.4297-33.043 13.4297-9.7734 0-18.8671-2.9766-26.4218-8.0703-13.9336-9.4024-17.4844-28.3555-8.4258-42.5157 13.8008-21.582 21.7656-47.2578 21.6562-74.8046-.293-74.879-61.1015-136.3672-135.9726-137.457-77.1719-1.1212-140.086 61.0976-140.086 138.0155 0 27.3711 7.9727 52.879 21.7188 74.336 9.043 14.1172 5.414 33.0469-8.4844 42.4258-7.5508 5.0937-16.6445 8.0703-26.4219 8.0703-12.4414 0-24.1523-4.7617-33.0468-13.4297-13.2149-12.875-34.375-13.6758-47.6407-.8516-13.5664 13.1094-13.703 34.7344-.418 48.0196 21.6641 21.664 50.465 33.5937 81.1055 33.5937 32.0508 0 61.0743-13.2187 81.9063-34.4922-5.8125 29.9297-18.4922 61.7344-46.168 91.8946-12.5703 13.6992-11.6562 34.996 2.043 47.5664 6.4648 5.9336 14.621 8.8632 22.754 8.8632 9.1015 0 18.1757-3.6718 24.8163-10.9062 36.539-39.8203 53.6719-81.836 61.707-119.8945.9532-4.5118 7.3711-4.5118 8.3204 0 8.039 38.0586 25.1718 80.0742 61.7109 119.8945 6.6367 7.2344 15.7148 10.9062 24.8125 10.9062 8.1367 0 16.289-2.9296 22.7539-8.8632 13.6992-12.5704 14.6172-33.8672 2.0469-47.5664-27.6758-30.1602-40.3555-61.9649-46.1719-91.8946 20.836 21.2735 49.8555 34.4922 81.9102 34.4922 30.6367 0 59.4375-11.9297 81.1054-33.5937 13.2813-13.2852 13.1446-34.9102-.4219-48.0196zm0 0" fill="#b49cdc"/>
  <path d="M209.0938 16.1836c-53.1407 19.2031-91.125 70.086-91.125 129.8476 0 27.3711 7.9726 52.879 21.7187 74.336 9.043 14.121 5.414 33.0469-8.4844 42.4258-7.5508 5.0937-16.6445 8.0742-26.4219 8.0742-12.4414 0-24.1523-4.7656-33.0468-13.4297-13.2149-12.879-34.375-13.6797-47.6406-.8555-13.5665 13.1094-13.7032 34.7344-.418 48.0196 21.664 21.664 50.4648 33.5976 81.1055 33.5976 32.0507 0 61.0742-13.2226 81.9062-34.496-5.8125 29.9335-18.4922 61.7343-46.168 91.8945-12.5703 13.703-11.6562 34.996 2.043 47.5703 6.4648 5.9297 14.621 8.8593 22.754 8.8593 9.1015 0 18.1757-3.668 24.8163-10.9062 35.2695-38.4336 52.457-78.914 60.836-115.9063-73.9805-61.2968-103.6016-251.8828-41.875-309.0312zm0 0M356.7383 51.9219C341.3867 35.5 322.0898 22.7969 300.3984 15.371c-8.4765 6.5156-13.9414 16.746-13.9414 28.2617 0 19.6758 15.9532 35.629 35.629 35.629 16.8242 0 30.914-11.6602 34.6523-27.34zm0 0" fill="#908cd6"/>
  <path d="M213.7773 70.2656c0 10.4766-8.4921 18.9688-18.9687 18.9688-10.4766 0-18.9727-8.4922-18.9727-18.9688s8.4961-18.9687 18.9727-18.9687 18.9687 8.4922 18.9687 18.9687zm0 0" fill="#908cd6"/>
  <path d="M201.5078 172.2969c0-14.0117-14.2656-25.375-31.8633-25.375-17.5976 0-31.8632 11.3633-31.8632 25.375 0 14.0156 14.2656 25.375 31.8632 25.375 17.5977 0 31.8633-11.3594 31.8633-25.375zm0 0M374.2188 172.2969c0-14.0117-14.2657-25.375-31.8633-25.375-17.5977 0-31.8633 11.3633-31.8633 25.375 0 14.0156 14.2656 25.375 31.8633 25.375 17.5976 0 31.8632-11.3594 31.8632-25.375zm0 0" fill="#eda1ab"/>
  <path d="M281.6914 152.8008c0-15.875-11.5039-17.3672-25.6914-17.3672s-25.6875 1.4922-25.6875 17.3672c0 15.8789 11.5 28.746 25.6875 28.746s25.6914-12.8671 25.6914-28.746zm0 0" fill="#4e5660"/>
  <path d="M452.668 294.379c-1.918 0-3.8399-.7345-5.3047-2.1993-2.9258-2.9297-2.9258-7.6797 0-10.6055l5.9453-5.9414c2.9258-2.9297 7.6758-2.9297 10.6055 0 2.9296 2.9297 2.9296 7.6758 0 10.6055l-5.9414 5.9414c-1.4649 1.4648-3.3868 2.1992-5.3047 2.1992zm0 0" fill="#908cd6"/>
  <path d="M173.1914 418.9258c-1.918 0-3.8398-.7305-5.3047-2.1953-2.9297-2.9297-2.9297-7.6797 0-10.6094l6.5664-6.5625c2.9297-2.9297 7.6758-2.9297 10.6055 0 2.9297 2.9297 2.9297 7.6797 0 10.6094l-6.5625 6.5625c-1.4649 1.4648-3.3867 2.1953-5.3047 2.1953zm0 0" fill="#b49cdc"/>
  <path d="M337.0273 149.836c4.1407 0 7.5-3.3555 7.5-7.5v-13.6758c0-4.1407-3.3593-7.5-7.5-7.5s-7.5 3.3593-7.5 7.5v13.6757c0 4.1446 3.3594 7.5 7.5 7.5zm-47.8359 2.9648c0-24.8672-22.418-24.8672-33.1914-24.8672s-33.1914 0-33.1914 24.8672c0 19.9883 14.8906 36.246 33.1914 36.246s33.1914-16.2577 33.1914-36.246zm-51.3789 0c0-7.1602 1.5664-9.8672 18.1875-9.8672s18.1875 2.707 18.1875 9.8672c0 11.7148-8.1602 21.246-18.1875 21.246-10.0313 0-18.1875-9.5312-18.1875-21.246zm266.754 137.5781c.7655-3.211 1.1483-6.539 1.117-9.9336-.0937-11.125-4.5546-21.5156-12.5624-29.2578-16.0977-15.5625-41.6172-15.1758-58.0938.875-7.4765 7.289-17.3554 11.3008-27.8085 11.3008-7.957 0-15.6446-2.3477-22.2266-6.789-10.375-7-13.2031-21.4688-6.3047-32.254 15.0547-23.543 22.9531-50.8164 22.8398-78.875-.1484-38.1953-15.1328-74.293-42.1875-101.6484C332.2812 16.4453 296.3516 1.0703 258.1641.5156c-45.8204-.6758-88.3008 19.6094-116.625 55.629-2.5625 3.2538-1.9961 7.9687 1.2578 10.5312 3.2578 2.5625 7.9726 1.996 10.5351-1.2578 25.4063-32.3125 63.5586-50.4766 104.6133-49.9024C328.5664 16.543 386.25 74.8555 386.5273 145.504c.1016 25.1719-6.9804 49.629-20.4765 70.7344-11.2461 17.586-6.5117 41.2578 10.5508 52.7734 9.0703 6.1211 19.6601 9.3555 30.6171 9.3555 14.3868 0 27.9805-5.5274 38.2774-15.5586 10.4492-10.1836 27.1367-10.5586 37.1992-.832 5.0899 4.9218 7.9258 11.5273 7.9883 18.5976.0234 3.0156-.461 5.957-1.4063 8.7227a9.0824 9.0824 0 00-.121.3476c-1.2852 3.586-3.3555 6.875-6.1368 9.6563-12.7773 12.7773-28.211 21.9258-45.0547 26.9414a5.6673 5.6673 0 00-.3671.1055c-9.7383 2.8632-19.9454 4.3515-30.379 4.3515s-20.6289-1.4922-30.3593-4.3554c-.3867-.1524-.789-.2696-1.2032-.3555-16.8476-5.1797-32.25-14.5274-44.9843-27.5313-2.3203-2.3672-5.914-2.9336-8.8477-1.3945-2.9297 1.539-4.5078 4.8203-3.875 8.0742 7.164 36.8906 22.8672 68.1406 48.004 95.5313 1.9648 2.1445 3.5468 4.5664 4.6991 7.1953 1.2344 2.8164 3.9844 4.496 6.875 4.496a7.4505 7.4505 0 003.004-.6327c3.7968-1.6641 5.5234-6.086 3.8632-9.879-1.8164-4.1484-4.3047-7.957-7.3867-11.3203-18.0117-19.6289-30.7812-41.414-38.6914-66.1171 8.957 6.1562 18.6406 11.039 28.8203 14.5703 3.0625 19.2343 19.8985 34.082 39.8672 34.082 18.2852 0 33.5703-11.8594 38.6016-28.4687 7.496 6.332 16.7617 9.5078 26.0351 9.5078 10.3399 0 20.6797-3.9336 28.5547-11.8086 14.0352-14.0313 15.6328-36.0742 4.3711-51.914zm-97.5626 67.6836c-10.0351 0-18.8086-5.9688-22.9062-14.543 7.539 1.4414 15.2734 2.1797 23.121 2.1797 7.6836 0 15.254-.7148 22.6446-2.0937-4.125 8.5234-12.8828 14.457-22.8594 14.457zm82.582-26.375c-8.6757 8.6758-22.125 9.7422-31.9765 3.1992 13.2422-5.996 25.4336-14.3945 36.0195-24.9804.8828-.8829 1.7149-1.8047 2.504-2.75 2.2733 8.5.0624 17.9257-6.547 24.5312zm-111.3164 100.543c-3.336-2.4493-8.0312-1.7344-10.4882 1.6054-1 1.3633-2.1524 2.6446-3.4141 3.8047-4.8399 4.4375-11.1211 6.8867-17.6836 6.8867-7.3125 0-14.3438-3.0898-19.2852-8.4765-.5586-.6055-1.1015-1.2149-1.6523-1.8242-.0469-.0586-.1016-.1133-.1524-.168-14.2421-15.832-26.0195-32.6406-35.4453-50.6484-.1992-.5079-.4492-1-.7656-1.461-9.9258-19.293-17.1719-39.961-21.8828-62.2695-1.1602-5.4961-5.8906-9.336-11.5-9.336s-10.3398 3.8399-11.5 9.336c-4.711 22.3125-11.957 42.9805-21.8828 62.2695-.3164.461-.5664.9531-.7656 1.461-9.4258 18.0078-21.2032 34.8164-35.4493 50.6484a5.632 5.632 0 00-.1484.164c-.5508.6094-1.0937 1.2227-1.6523 1.8282-4.9414 5.3867-11.9688 8.4765-19.2852 8.4765-6.5664 0-12.8437-2.4492-17.6836-6.8867-10.6289-9.7578-11.3437-26.3398-1.586-36.9726 25.1368-27.3907 40.84-58.6407 48.004-95.5352.6289-3.25-.9453-6.5312-3.879-8.0703-2.9296-1.539-6.5273-.9727-8.8437 1.3945-12.7304 12.9961-28.1289 22.3438-44.9687 27.5274a7.178 7.178 0 00-1.2578.371c-9.7188 2.8555-19.9024 4.3438-30.3204 4.3438-10.4296 0-20.6289-1.4883-30.3632-4.3437a5.8146 5.8146 0 00-.3946-.1172c-16.8398-5.0156-32.2695-14.164-45.0468-26.9375-2.7774-2.7774-4.8516-6.0703-6.1368-9.6563a6.0612 6.0612 0 00-.1171-.3476c-.9493-2.7656-1.4336-5.7031-1.4063-8.7227.0586-7.0703 2.8984-13.6758 7.9883-18.5976 10.0586-9.7227 26.746-9.3477 37.1953.832 10.2969 10.0352 23.8906 15.5586 38.2773 15.5586 10.961 0 21.547-3.2344 30.6211-9.3555 17.0743-11.5234 21.832-35.1562 10.6055-52.6875-13.4336-20.9687-20.5312-45.2734-20.5312-70.293 0-17.8867 3.5468-35.2148 10.5507-51.5 1.6328-3.8046-.125-8.2148-3.9297-9.8515-3.8046-1.6367-8.2187.121-9.8515 3.9258-7.8125 18.1718-11.7735 37.4922-11.7735 57.4258 0 27.8906 7.922 54.996 22.9024 78.3828 6.871 10.7304 4.0195 25.1562-6.3633 32.164-6.582 4.4414-14.2695 6.789-22.2266 6.789-10.457 0-20.332-4.0116-27.8125-11.3007-16.4726-16.0547-41.9921-16.4375-58.0898-.875-8.0078 7.7422-12.4687 18.129-12.5625 29.2578a41.3888 41.3888 0 001.1133 9.9336c-11.2578 15.8399-9.6602 37.879 4.375 51.914 7.871 7.875 18.211 11.8087 28.5547 11.8087 9.2734 0 18.539-3.1758 26.0312-9.5078 5.0352 16.6093 20.3203 28.4687 38.6055 28.4687 19.9648 0 36.8047-14.8516 39.8672-34.082 10.1797-3.5313 19.8594-8.414 28.8203-14.5703-7.9102 24.703-20.6797 46.4882-38.6914 66.1172-15.3477 16.7265-14.2266 42.8164 2.5 58.164 7.6133 6.9883 17.496 10.836 27.8242 10.836 10.7578 0 21.1211-4.25 28.7813-11.7266 3.6718 1.0547 7.414 1.586 11.1328 1.586 10.457 0 20.6953-4.0977 28.4648-11.8673 14.125-14.125 15.5274-36.5351 4.082-52.3007 7.6446-15.4649 13.6993-31.754 18.2227-48.9961 4.5273 17.2422 10.582 33.5312 18.2227 48.996-11.4415 15.7657-10.043 38.1758 4.082 52.3008 7.7695 7.7696 18.0078 11.8672 28.4648 11.8672 3.7188 0 7.461-.5312 11.1328-1.586 7.6602 7.4767 18.0235 11.7267 28.7813 11.7267 10.332 0 20.211-3.8477 27.8281-10.836 1.9766-1.8164 3.7813-3.8242 5.3594-5.9726 2.4531-3.3438 1.7344-8.0391-1.6016-10.4922zM22.4102 331.6875c-6.6055-6.6055-8.8164-16.0313-6.543-24.5313.789.9454 1.621 1.8672 2.5039 2.75 10.586 10.586 22.7773 18.9844 36.0195 24.9805-9.8515 6.543-23.3008 5.4766-31.9804-3.1992zm82.5859 26.375c-9.9766 0-18.7344-5.9336-22.8594-14.4531a123.7201 123.7201 0 0022.6406 2.0898c7.8516 0 15.586-.7383 23.125-2.1797-4.0976 8.5743-12.871 14.543-22.9062 14.543zm118.0937 68.8477c-4.6992 4.6992-10.8398 7.2539-17.1523 7.4414 8.7422-10.6524 16.4883-21.7188 23.2695-33.254 2.8399 8.8047.8047 18.8907-6.1172 25.8126zm65.8204 0c-6.922-6.922-8.957-17.0079-6.1172-25.8125 6.7812 11.5351 14.5273 22.6015 23.2695 33.2539-6.3164-.1875-12.4531-2.7422-17.1523-7.4414zM182.4727 142.3359v-13.6757c0-4.1407-3.3594-7.5-7.5-7.5-4.1446 0-7.504 3.3593-7.504 7.5v13.6757c0 4.1446 3.3594 7.5 7.504 7.5 4.1406 0 7.5-3.3554 7.5-7.5zm0 0"/>
</svg>
